Coordinates
version=1
nRows=16
nColumns=40
inDegrees=yes

Units are S.I. units (second, meters, Newtons, ...)
If the header above contains a line with 'inDegrees', this indicates whether rotational values are in degrees (yes) or radians (no).

endheader
time	pelvis_tilt	pelvis_list	pelvis_rotation	pelvis_tx	pelvis_ty	pelvis_tz	hip_flexion_r	hip_adduction_r	hip_rotation_r	knee_angle_r	knee_angle_r_beta	ankle_angle_r	subtalar_angle_r	mtp_angle_r	hip_flexion_l	hip_adduction_l	hip_rotation_l	knee_angle_l	knee_angle_l_beta	ankle_angle_l	subtalar_angle_l	mtp_angle_l	lumbar_extension	lumbar_bending	lumbar_rotation	arm_flex_r	arm_add_r	arm_rot_r	elbow_flex_r	pro_sup_r	wrist_flex_r	wrist_dev_r	arm_flex_l	arm_add_l	arm_rot_l	elbow_flex_l	pro_sup_l	wrist_flex_l	wrist_dev_l
      5.35500000	    -31.63730448	      5.89982861	      5.40749994	     -0.45711907	      0.60547985	     -0.90072790	     95.22279126	    -15.47223597	     13.26289656	    110.23806957	      1.92401728	     46.01178027	      0.00000000	      0.00000000	     92.50377188	    -12.78415082	     -3.12069871	    107.29658596	      1.87267870	     43.40631317	      0.00000000	      0.00000000	    -22.68907660	     -6.02728487	    -10.21016364	      0.39692864	    -44.36075003	     61.33973189	     82.27568660	     87.89310989	      0.00000000	      0.00000000	    -24.08354175	    -42.08982462	     35.04896441	     87.92764671	     87.86228634	      0.00000000	      0.00000000
      5.36000000	    -31.67407930	      5.92787769	      5.40357721	     -0.45697733	      0.60547000	     -0.90091980	     95.24579019	    -15.48291096	     13.30734609	    110.22573210	      1.92380195	     46.05955509	      0.00000000	      0.00000000	     92.49635059	    -12.76772801	     -3.16879072	    107.30288869	      1.87278870	     43.38183763	      0.00000000	      0.00000000	    -22.70899555	     -6.05651021	    -10.15928075	      0.21134368	    -44.39266730	     61.14663217	     82.27607732	     87.84627339	      0.00000000	      0.00000000	    -24.06852130	    -42.09475691	     35.08517461	     87.92396408	     87.80773433	      0.00000000	      0.00000000
      5.36500000	    -31.70036723	      5.81421525	      5.25585099	     -0.45673720	      0.60543726	     -0.90062262	     95.20887167	    -15.27927740	     13.18019994	    110.19541640	      1.92327284	     46.00627007	      0.00000000	      0.00000000	     92.55494088	    -12.98125370	     -3.07213663	    107.35659762	      1.87372610	     43.39892799	      0.00000000	      0.00000000	    -22.67047445	     -6.02244887	    -10.34780203	      0.99896790	    -44.34489270	     62.08761395	     82.15428509	     87.87605334	      0.00000000	      0.00000000	    -24.62867893	    -41.85480274	     34.40543760	     87.94424422	     87.88380083	      0.00000000	      0.00000000
      5.37000000	    -31.74684620	      5.72671615	      5.27583770	     -0.45664743	      0.60534905	     -0.90079591	     95.20977613	    -15.28762065	     13.10130355	    110.20522504	      1.92344403	     46.17369853	      0.00000000	      0.00000000	     92.65546086	    -12.96495200	     -2.97946349	    107.38217704	      1.87417255	     43.29369177	      0.00000000	      0.00000000	    -22.65693043	     -5.93364748	    -10.25914586	      0.75703355	    -44.38227765	     61.82162003	     82.21899310	     87.85775527	      0.00000000	      0.00000000	    -24.58656838	    -41.86641143	     34.43055330	     87.96463832	     87.85952333	      0.00000000	      0.00000000
      5.37500000	    -31.84931333	      5.68462362	      5.26459563	     -0.45655797	      0.60523484	     -0.90091088	     95.27677135	    -15.28102937	     13.05929363	    110.14380441	      1.92237204	     46.51762603	      0.00000000	      0.00000000	     92.74487509	    -12.98282359	     -2.93161763	    107.35895803	      1.87376730	     43.44552228	      0.00000000	      0.00000000	    -22.56800731	     -5.90961470	    -10.15534700	      0.53444651	    -44.40720338	     61.51101630	     82.29880207	     87.63131153	      0.00000000	      0.00000000	    -24.47940899	    -41.93081507	     34.60010494	     87.99951660	     87.63185449	      0.00000000	      0.00000000
      5.38000000	    -32.01829919	      5.65409993	      5.18219086	     -0.45654928	      0.60509001	     -0.90088754	     95.48029141	    -15.14438763	     13.07036892	    110.16199354	      1.92268950	     45.90724719	      0.00000000	      0.00000000	     92.93083120	    -13.06627793	     -2.93252751	    107.37123751	      1.87398162	     43.45997973	      0.00000000	      0.00000000	    -22.41125363	     -5.93695410	     -9.49127723	     -0.67649273	    -44.33231282	     60.11114057	     82.40355667	     87.91100099	      0.00000000	      0.00000000	    -23.43589720	    -42.32622332	     35.87602163	     87.89590791	     87.89297592	      0.00000000	      0.00000000
      5.38500000	    -31.97747621	      5.55782420	      5.21460357	     -0.45628122	      0.60516554	     -0.90108159	     95.37025317	    -15.19543271	     12.96669165	    110.16724979	      1.92278124	     46.10627139	      0.00000000	      0.00000000	     92.90403830	    -13.04233811	     -2.84218545	    107.37109375	      1.87397911	     43.41817773	      0.00000000	      0.00000000	    -22.47200553	     -5.81332461	     -9.47955993	     -0.71334632	    -44.37847732	     60.04534202	     82.37109160	     87.82787962	      0.00000000	      0.00000000	    -23.41924647	    -42.33336400	     35.92880178	     87.88990327	     87.80641033	      0.00000000	      0.00000000
      5.39000000	    -31.79773792	      5.52279413	      5.19758399	     -0.45573395	      0.60568305	     -0.90115950	     95.08964713	    -15.24417683	     12.88707125	    110.13336236	      1.92218979	     45.84090260	      0.00000000	      0.00000000	     92.68167766	    -13.05219770	     -2.80571063	    107.39161524	      1.87433727	     43.59237008	      0.00000000	      0.00000000	    -22.67207512	     -5.75919723	     -9.43811755	     -0.65912369	    -44.37042963	     60.13602014	     82.40023913	     87.88588683	      0.00000000	      0.00000000	    -23.23890743	    -42.38462671	     36.12148116	     87.86884585	     87.86556543	      0.00000000	      0.00000000
      5.39500000	    -31.87990171	      5.55663449	      5.20276811	     -0.45562016	      0.60576442	     -0.90134987	     95.17357747	    -15.24965544	     12.95049117	    110.12167195	      1.92198575	     45.73428571	      0.00000000	      0.00000000	     92.71787305	    -13.03570296	     -2.88148288	    107.35132171	      1.87363402	     43.46485183	      0.00000000	      0.00000000	    -22.59880425	     -5.79611373	     -9.21761343	     -1.11163591	    -44.36733353	     59.62311193	     82.44501934	     87.92745094	      0.00000000	      0.00000000	    -22.72759195	    -42.58788058	     36.81304506	     87.79638126	     87.88980850	      0.00000000	      0.00000000
      5.40000000	    -31.87461391	      5.62087723	      5.26786011	     -0.45545158	      0.60592426	     -0.90174557	     95.16660234	    -15.37252534	     13.01263962	    110.11303885	      1.92183508	     45.94911489	      0.00000000	      0.00000000	     92.66177498	    -12.91928020	     -2.95776815	    107.35543391	      1.87370579	     43.46519002	      0.00000000	      0.00000000	    -22.66643582	     -5.82450380	     -9.41521353	     -0.94390606	    -44.39417680	     59.81083553	     82.44221745	     87.90555280	      0.00000000	      0.00000000	    -22.96871485	    -42.48692779	     36.48507049	     87.85505771	     87.87502174	      0.00000000	      0.00000000
      5.40500000	    -31.90198996	      5.66798079	      5.11355323	     -0.45529917	      0.60596669	     -0.90150771	     95.18755330	    -15.18870190	     13.06094280	    110.07575006	      1.92118427	     45.81312135	      0.00000000	      0.00000000	     92.63147475	    -13.10534068	     -3.02769642	    107.36203923	      1.87382108	     43.51754618	      0.00000000	      0.00000000	    -22.65681641	     -5.95816040	    -10.25093585	      1.07501843	    -44.36895808	     62.27658114	     82.17697225	     87.87071956	      0.00000000	      0.00000000	    -24.75206493	    -41.88980642	     34.34713771	     88.03339004	     87.86014000	      0.00000000	      0.00000000
      5.41000000	    -31.95998144	      5.74012814	      5.10146953	     -0.45510910	      0.60615163	     -0.90172590	     95.24914844	    -15.21057006	     13.14000046	    110.04400826	      1.92063027	     45.72897055	      0.00000000	      0.00000000	     92.61326716	    -13.08390481	     -3.12403240	    107.32042525	      1.87309478	     43.53710252	      0.00000000	      0.00000000	    -22.64869282	     -6.03093400	     -9.71991791	     -0.19628885	    -44.33573937	     60.69185398	     82.31489638	     87.90665399	      0.00000000	      0.00000000	    -23.77291583	    -42.19106942	     35.43338344	     87.90197552	     87.89675805	      0.00000000	      0.00000000
      5.41500000	    -31.94775619	      5.66061872	      5.15546054	     -0.45505851	      0.60629199	     -0.90209640	     95.15845642	    -15.29823317	     13.01862226	    109.96271848	      1.91921149	     46.21835556	      0.00000000	      0.00000000	     92.63106923	    -12.99078140	     -3.02993819	    107.34360979	      1.87349942	     43.51429882	      0.00000000	      0.00000000	    -22.71110365	     -5.91031045	     -9.66739416	     -0.51366792	    -44.37889771	     60.29920400	     82.41402092	     87.78007280	      0.00000000	      0.00000000	    -23.70954794	    -42.19464526	     35.42535751	     87.95336099	     87.74510577	      0.00000000	      0.00000000
      5.42000000	    -32.06771914	      5.60333113	      5.17516771	     -0.45507092	      0.60630672	     -0.90214516	     95.27873360	    -15.28846183	     13.01475601	    109.97980874	      1.91950977	     45.79764151	      0.00000000	      0.00000000	     92.76090915	    -12.97202538	     -2.97727071	    107.29874547	      1.87271639	     43.44740867	      0.00000000	      0.00000000	    -22.54947603	     -5.87871949	    -10.26535140	      1.02941591	    -44.40558839	     62.24725260	     82.24777346	     87.86255441	      0.00000000	      0.00000000	    -24.65749122	    -41.92019948	     34.49895127	     87.99451046	     87.87854928	      0.00000000	      0.00000000
      5.42500000	    -32.18767618	      5.60371517	      5.12407119	     -0.45502379	      0.60632755	     -0.90223650	     95.39852240	    -15.24023664	     13.00942238	    109.94932022	      1.91897765	     45.85343481	      0.00000000	      0.00000000	     92.86813776	    -13.00376564	     -2.98933621	    107.29188526	      1.87259666	     43.60242822	      0.00000000	      0.00000000	    -22.42922301	     -5.90854890	     -9.75316818	     -0.03392343	    -44.40497746	     60.99852661	     82.36535986	     87.88678100	      0.00000000	      0.00000000	    -23.83593549	    -42.24619608	     35.50617908	     87.93928555	     87.88452835	      0.00000000	      0.00000000
      5.43000000	    -32.56746743	      5.49161599	      5.18879908	     -0.45553487	      0.60573338	     -0.90249838	     95.82141046	    -15.24360287	     12.96740545	    109.91466273	      1.91837276	     45.68240307	      0.00000000	      0.00000000	     93.36011743	    -12.94806503	     -2.89428839	    107.27540606	      1.87230904	     43.42323766	      0.00000000	      0.00000000	    -22.01164137	     -5.81158898	     -9.66970575	     -0.27134071	    -44.46834717	     60.73047664	     82.48102560	     87.88866782	      0.00000000	      0.00000000	    -23.71363629	    -42.31174988	     35.76320037	     87.98505154	     87.87438674	      0.00000000	      0.00000000
